<svg width="8" height="8" viewBox="0 0 8 8" fill="none" xmlns="http://www.w3.org/2000/svg">
<path d="M7.20488 1.44808C7.40104 1.24572 7.3698 0.945149 7.13371 0.777008C6.89762 0.608867 6.54696 0.635651 6.3508 0.838015L4.00033 3.25597L1.64985 0.838015C1.45369 0.635651 1.10303 0.608867 0.866943 0.777008C0.630855 0.945149 0.599608 1.24572 0.79577 1.44808L3.27644 3.99996L0.79577 6.55183C0.599608 6.7542 0.630855 7.05477 0.866943 7.22291C1.10303 7.39105 1.45369 7.36427 1.64985 7.1619L4.00033 4.74395L6.3508 7.1619C6.54696 7.36427 6.89762 7.39105 7.13371 7.22291C7.3698 7.05477 7.40104 6.7542 7.20488 6.55183L4.72421 3.99996L7.20488 1.44808Z" fill="#F01616"/>
</svg>
