<svg width="15" height="15" viewBox="0 0 15 15" fill="none" xmlns="http://www.w3.org/2000/svg">
<path d="M14.7103 1.75828C15.1516 1.30296 15.0813 0.626677 14.5501 0.24836C14.0189 -0.129957 13.2299 -0.0696944 12.7886 0.385626L7.5 5.82603L2.21144 0.385626C1.77008 -0.0696944 0.98109 -0.129957 0.449891 0.24836C-0.0813089 0.626677 -0.151615 1.30296 0.289749 1.75828L5.87125 7.5L0.289749 13.2417C-0.151615 13.697 -0.0813089 14.3733 0.449891 14.7516C0.98109 15.13 1.77008 15.0697 2.21144 14.6144L7.5 9.17397L12.7886 14.6144C13.2299 15.0697 14.0189 15.13 14.5501 14.7516C15.0813 14.3733 15.1516 13.697 14.7103 13.2417L9.12875 7.5L14.7103 1.75828Z" fill="black"/>
</svg>
