<svg width="195" height="153" viewBox="0 0 195 153" fill="none" xmlns="http://www.w3.org/2000/svg">
<mask id="mask0_53_3186" style="mask-type:alpha" maskUnits="userSpaceOnUse" x="0" y="18" width="195" height="117">
<path d="M186.159 18H8C3.58172 18 0 21.5817 0 26V127C0 131.418 3.58172 135 8 135H186.159C190.577 135 194.159 131.418 194.159 127V26C194.159 21.5817 190.577 18 186.159 18Z" fill="#C4C4C4"/>
</mask>
<g mask="url(#mask0_53_3186)">
<path fill-rule="evenodd" clip-rule="evenodd" d="M30.6583 154.876C24.135 158.581 16.8043 160.66 9.05598 160.66C-18.1685 160.66 -40.2383 134.992 -40.2383 103.33C-40.2383 71.6675 -18.1685 46 9.05598 46C34.4875 46 55.421 68.398 58.0679 97.158C59.9048 95.9005 61.8124 94.7207 63.7845 93.6241C62.8758 91.0341 62.3749 88.2001 62.3749 85.23C62.3749 72.9527 70.9326 63 81.4891 63C91.6925 63 100.029 72.2982 100.575 84.0065C100.919 84.0022 101.263 84 101.608 84C141.056 84 173.035 112.43 173.035 147.5C173.035 182.57 141.056 211 101.608 211C64.9667 211 34.7694 186.471 30.6583 154.876Z" fill="url(#paint0_linear_53_3186)" fill-opacity="0.7"/>
</g>
<path d="M156.675 34.2383C157.553 34.2383 158.255 34.9359 158.255 35.8079C158.255 36.6798 157.553 37.3774 156.675 37.3774C155.797 37.3774 155.094 36.6798 155.094 35.8079C155.094 34.9359 155.797 34.2383 156.675 34.2383Z" fill="#FF88C4"/>
<path d="M151.404 34.2383C152.282 34.2383 152.984 34.9359 152.984 35.8079C152.984 36.6798 152.282 37.3774 151.404 37.3774C150.526 37.3774 149.824 36.6798 149.824 35.8079C149.882 34.9359 150.585 34.2383 151.404 34.2383Z" fill="#36BFE3"/>
<path d="M146.373 34.2383C147.251 34.2383 147.953 34.9359 147.953 35.8079C147.953 36.6798 147.251 37.3774 146.373 37.3774C145.495 37.3774 144.793 36.6798 144.793 35.8079C144.793 34.9359 145.495 34.2383 146.373 34.2383Z" fill="#FFCE76"/>
<path d="M87.9614 108.531C88.4296 110.508 88.9563 112.484 89.6586 114.344C90.361 116.146 91.3559 117.774 92.702 119.111C93.9311 120.39 95.4528 121.378 97.033 122.192C98.6717 123.006 100.369 123.646 102.125 124.169C104.056 124.75 106.105 125.331 108.094 125.041C111.665 124.518 114.532 121.495 115.879 118.297C116.639 116.495 116.698 114.693 116.815 112.775C116.873 111.728 117.049 110.682 117.634 109.81C118.161 109.054 118.863 108.473 119.449 107.775C121.79 105.101 121.673 101.265 119.624 98.5323C119.097 97.8347 118.512 97.1371 118.161 96.3233C117.751 95.2769 118.22 94.3468 118.395 93.3004C118.688 91.7308 117.927 90.1031 116.522 89.2311C116.054 88.8242 115.644 88.4754 115.176 88.0684C113.537 86.6733 111.782 85.3362 110.026 84.1154C109.558 83.7666 109.089 83.476 108.621 83.1853C108.329 82.9528 107.919 82.6621 107.509 82.6621C107.158 82.6621 106.865 82.8946 106.631 83.1272C106.222 83.476 105.87 83.8248 105.461 84.1736C103.881 85.5687 102.3 86.9639 100.837 88.5335C99.3741 90.045 98.145 91.6727 96.9745 93.3585C96.3307 94.2305 95.6869 95.0444 94.8675 95.8001C94.1067 96.4977 93.2873 97.1953 92.5264 97.8929C91.0048 99.3462 89.9513 101.032 89.0148 102.892C88.6052 103.764 88.0784 104.694 87.8443 105.624C87.6687 106.671 87.7273 107.601 87.9614 108.531Z" fill="#36BFE3"/>
<path d="M10.5909 118.994C11.2347 122.424 18.0238 119.576 21.0672 121.029C21.828 121.378 22.5889 121.727 23.4082 122.075C28.3245 125.098 34.0016 126.784 39.6202 127.947C53.0813 130.737 67.4789 132.074 80.7059 127.482C86.0318 125.622 91.0066 122.773 95.162 118.936C97.2104 117.076 99.0248 114.983 100.547 112.658C102.069 110.333 103.122 107.833 103.824 105.159C103.883 104.984 103.59 104.868 103.532 105.043C103.356 105.508 103.122 105.973 102.888 106.438C102.946 106.147 103.005 105.856 103.064 105.566C104.234 104.403 103.122 102.601 102.537 101.496C101.834 100.218 100.957 99.0549 100.02 97.9504C98.9077 96.6133 97.6201 95.3925 96.3911 94.1136C96.2155 93.9392 95.9814 93.7067 95.8058 93.5323C93.4647 91.1488 91.1822 88.7654 89.7775 85.6844C89.1338 84.2892 88.7826 82.7196 87.9047 81.4407C87.0268 80.1618 85.6807 79.3479 84.3931 78.6503C83.8664 78.3597 83.3981 78.1271 82.8714 77.8946C82.6373 77.7783 82.4032 77.6621 82.1105 77.5458C81.1741 77.1389 80.2962 76.8482 79.4183 76.6738C78.9501 76.5576 78.4819 76.4994 78.0137 76.4994C77.1358 75.8018 76.1994 75.1624 75.3215 74.5229C74.9703 74.2904 74.5606 73.9997 74.2094 73.7672C72.4536 72.5464 70.5808 71.4419 68.6494 70.3955C64.7866 68.3608 60.6312 66.9075 56.1832 66.7331C54.0762 66.6169 51.9693 66.7913 49.9209 67.1401C47.6968 66.8494 45.4143 66.8494 43.2488 67.4307C41.9027 67.8376 40.7322 68.4771 39.7372 69.291C38.8593 69.9886 38.0985 70.8024 37.3961 71.6163C37.2206 71.7907 36.9865 71.9069 36.8109 72.0813C35.8159 72.8952 34.938 73.7672 34.1772 74.7554C34.0016 74.9298 33.8845 75.1042 33.7675 75.3368C33.5334 75.6274 33.2993 75.9181 33.1237 76.2087C32.0117 77.7783 31.0753 79.5223 30.1974 81.2663C30.0803 81.3826 30.0218 81.4988 29.9633 81.6151C29.8462 81.7895 29.6706 82.022 29.5536 82.1964C26.9784 85.9169 24.5203 89.6955 22.1207 93.4741C20.0722 96.7877 17.9653 100.159 16.2095 103.705C14.5707 106.961 9.47888 113.181 10.5909 118.994Z" fill="#36BFE3"/>
<path d="M29.4375 82.2552C33.827 84.3479 38.041 86.9058 41.377 90.4519C43.0743 92.254 44.5374 94.2305 45.6494 96.4395C46.7614 98.6486 47.3467 100.974 47.6979 103.415C47.6979 103.532 47.932 103.532 47.932 103.415C47.932 100.683 47.0541 98.0091 45.825 95.5675C43.4839 91.0332 39.7382 87.4871 35.5243 84.7549C33.71 83.5922 31.8371 82.6039 29.9057 81.6738C29.7302 81.8482 29.6131 82.0808 29.4375 82.2552Z" fill="#FF88C4"/>
<path d="M23.5266 55.2232C24.1119 57.6066 25.3409 59.8157 27.0382 61.6178C30.4913 65.2801 35.2319 67.3148 39.68 69.3494C45.5912 72.0235 51.5024 74.6976 57.4136 77.3136C60.1643 78.5344 62.9736 79.6389 65.8414 80.4527C68.7677 81.2666 71.6355 81.9642 74.6789 82.1386C74.913 82.1386 74.9716 81.9642 74.9716 81.7898C75.3813 81.6735 75.7324 81.4991 76.1421 81.3829C76.7274 81.1503 77.3126 80.8597 77.8979 80.5109C79.3025 79.697 80.8828 78.7669 82.0533 77.5461C82.1704 77.4298 82.2874 77.3136 82.4045 77.1392C82.8727 76.616 83.2824 76.0347 83.575 75.3952C84.8041 72.8374 83.1068 69.6982 82.0533 67.3729C79.8293 62.2572 77.0785 57.316 73.8596 52.7235C67.5972 43.8873 58.8767 36.5045 48.4005 33.3653C42.9575 31.7376 36.8122 31.1563 31.6033 33.8304C29.2622 35.0512 27.3308 36.8533 26.0433 39.1204C24.6971 41.5039 23.8778 44.178 23.4095 46.9102C22.9413 49.6424 22.8828 52.4909 23.5266 55.2232Z" fill="#36BFE3"/>
<path d="M37.8063 36.912C37.9233 36.5632 38.2745 36.3888 38.6256 36.2725C39.3865 36.0981 40.2059 36.2144 40.9667 36.3307C41.4934 36.3888 42.0787 36.5051 42.6055 36.7376C44.0101 36.912 45.2977 37.377 46.5853 37.9002C49.2775 39.0629 51.7356 40.6906 54.1937 42.3183C56.5348 43.8298 58.7588 45.4575 60.9828 47.2015C65.4309 50.6894 69.5277 54.5843 73.0393 59.0024C73.9758 60.2232 74.9122 61.444 75.7901 62.7229C76.668 64.0599 77.5459 65.4551 78.0726 66.9665C78.5409 68.3617 78.5994 69.9313 77.8971 71.2684C77.6044 71.8497 77.1947 72.3729 76.7265 72.8379C75.6145 73.9425 74.3855 74.2913 73.0393 73.1867C70.5812 71.2102 68.5328 69.5244 66.1332 67.4897C62.3875 64.2924 58.7588 60.9789 55.3057 57.4909C53.3158 55.5144 51.3845 53.4216 49.5116 51.3289C48.6922 50.6894 47.8729 49.9918 47.112 49.2942C46.5267 48.7129 46 48.1316 45.4733 47.5503C44.0686 46.3295 42.7225 45.0505 41.552 43.6554C40.6741 42.6671 39.9132 41.6207 39.2694 40.4581C38.9183 39.8767 38.1574 38.5978 38.0404 37.6096C37.8063 37.377 37.7477 37.1445 37.8063 36.912Z" fill="#202B59"/>
<path d="M77.0166 46.2701C78.4798 48.5954 81.8743 48.7698 84.3325 48.7698C85.6786 48.7698 87.1417 48.7698 88.3123 48.0722C89.4828 47.4328 89.834 46.1538 89.5999 44.9331C89.0146 42.0264 86.6735 39.7592 84.5666 37.8409C84.508 37.7827 84.391 37.899 84.4495 37.9571C84.508 38.0153 84.5666 38.1315 84.6251 38.1897C83.9228 37.7246 82.9863 37.6083 82.2255 37.8409C81.5232 38.0734 80.9379 38.5966 80.2941 39.0035C79.5918 39.4105 78.8895 39.7593 78.2457 40.2243C76.3143 41.5614 75.7876 44.2936 77.0166 46.2701Z" fill="#36D7BE"/>
<path d="M61.3923 32.9008C66.6011 30.6336 76.7263 29.0059 82.6375 36.9119C89.6021 46.155 91.8261 51.6776 91.1238 56.7933C90.1874 63.7692 85.7979 66.327 80.7646 66.9665C75.7898 67.5478 52.2621 65.455 51.8524 51.5032C51.6183 40.9231 56.1834 35.1679 61.3923 32.9008Z" fill="#202B59"/>
<path d="M60.9827 35.052C63.8505 33.4824 72.0443 33.4243 72.1613 30.2852C72.3369 27.146 69.2935 20.9258 61.3924 21.7978C53.4913 22.7279 50.7406 27.7273 51.3258 32.3779C51.9111 37.0285 54.4863 37.9005 57.1785 37.8424C59.8707 37.7843 60.9827 35.052 60.9827 35.052Z" fill="#202B59"/>
<path d="M56.7097 64.757L58.5825 66.2103C61.2747 68.3031 63.9084 70.3959 66.6007 72.4305C66.7762 72.5468 66.9518 72.5468 67.0689 72.4305C69.4685 71.0935 74.4433 64.4663 74.4433 64.4663C74.4433 64.4663 71.2243 57.6648 69.8782 55.2232C69.1173 53.8862 68.2979 52.6073 67.3615 51.4446C66.4251 50.282 65.5472 51.619 64.8449 52.3747C62.6794 54.7582 60.5724 57.1998 58.5825 59.7576C58.0558 60.4552 57.4705 61.1528 56.9438 61.8504C56.5926 62.3154 56.0073 62.8386 55.8318 63.4199C55.5976 64.1175 56.3 64.4663 56.7097 64.757Z" fill="#FFC5C5"/>
<path d="M63.0904 59.9898C64.0268 62.1989 65.3729 64.1754 66.7776 66.0938C68.0066 67.7215 69.2357 69.698 71.3427 70.2793C73.3326 70.8025 75.7322 70.0468 77.605 69.291C78.6 68.8841 79.5949 68.3028 80.2972 67.5471C80.7069 67.082 81.0581 66.6169 81.4093 66.0938C82.053 65.9194 82.6968 65.6868 83.1651 65.2218C83.9259 64.4079 83.5747 63.5359 83.1651 62.6639C82.2286 60.4549 82.8724 58.304 84.2771 56.5019C85.4476 54.9904 86.384 53.4208 86.7937 51.5606C87.3205 49.1772 87.0278 46.5612 85.9158 44.3522C84.8623 42.2594 83.3992 40.5735 81.5263 39.469C79.3608 38.1901 77.0197 38.0738 74.6201 38.7133C72.3961 39.2946 70.1136 40.2829 68.2407 41.6199C66.3094 42.957 64.9632 44.8172 63.8512 46.7937C62.7978 48.7121 61.9784 50.8049 61.8028 53.0139C61.6857 55.2811 62.154 57.8389 63.0904 59.9898Z" fill="#FFC5C5"/>
<path d="M75.6728 57.7807C75.7898 58.1295 75.9654 58.4783 76.141 58.769C76.3166 59.0596 76.4921 59.3503 76.7262 59.5247C77.253 59.9316 77.8968 59.4084 78.2479 59.0015C78.4235 58.8271 78.7161 58.5364 78.7747 58.1876C78.8332 58.0132 78.7161 57.7807 78.5991 57.7226C78.482 57.5482 78.2479 57.4319 78.0138 57.3738C77.6627 57.2575 77.253 57.1413 76.9018 57.1413C76.5507 57.0831 76.1995 57.0831 75.8483 57.1413C75.5557 57.1994 75.6142 57.4901 75.6728 57.7807Z" fill="white"/>
<path d="M57.9373 50.4558C58.1714 53.0136 60.7466 53.3624 62.8536 53.5949C68.0624 54.1181 73.4469 53.2461 78.2461 51.1534C80.4116 50.2232 82.8112 49.0606 84.3914 47.2003C85.679 45.6889 86.2057 43.3636 85.0937 41.6196C85.0937 41.5615 85.0352 41.4452 85.0352 41.3289C84.9181 40.9801 84.8011 40.6895 84.6255 40.3988C84.2743 39.7012 84.0402 39.3524 83.7476 39.0618C80.7042 35.4575 75.6709 34.2949 71.1643 35.1087C68.7062 35.5738 66.3066 36.5621 64.1411 37.8991C62.0342 39.2362 60.571 41.0383 59.6346 43.2473C59.1078 44.4681 58.7567 45.6889 58.4055 46.9678C58.1714 48.1305 57.8203 49.2931 57.9373 50.4558Z" fill="#202B59"/>
<path d="M75.6719 57.3746C75.7304 57.2002 75.9645 57.2003 76.1401 57.1421C76.3157 57.1421 76.4912 57.084 76.6083 57.084C76.9595 57.084 77.3106 57.084 77.6618 57.1421C78.3641 57.2584 78.9494 57.5491 79.5346 58.0141C79.7687 58.1885 79.4761 58.4792 79.242 58.3629C78.7738 57.956 78.1885 57.7234 77.5447 57.6072C77.2521 57.549 76.9594 57.549 76.6668 57.549C76.4912 57.549 76.3742 57.549 76.1986 57.6072C76.023 57.6653 75.8474 57.7234 75.7304 57.6072C75.6719 57.549 75.6719 57.4909 75.6719 57.3746Z" fill="#202B59"/>
<path d="M76.9024 59.1755C77.0195 58.8267 77.4292 58.4198 77.5462 58.3035C77.7803 58.1291 78.4827 58.071 78.6582 58.3617C79.185 59.0011 77.6047 59.7568 77.195 59.7568C76.8439 59.6987 76.7854 59.4662 76.9024 59.1755Z" fill="#202B59"/>
<path d="M77.722 53.887C77.7806 54.0614 77.9561 54.1777 78.1317 54.2939C78.3658 54.4683 78.5999 54.5846 78.834 54.759C79.3023 55.0496 79.7705 55.3403 80.2387 55.631C80.6484 55.9216 81.0581 56.2123 81.5263 56.3867C81.8774 56.503 82.2871 56.503 82.5212 56.1542C82.7553 55.8635 82.7553 55.4566 82.6383 55.1659C82.4627 54.759 82.1115 54.5265 81.7604 54.3521C81.3507 54.1777 80.8825 54.0033 80.4728 53.887C79.7705 53.7126 78.9511 53.5963 78.1902 53.6545C78.0732 53.5382 77.8391 53.4801 77.7806 53.7126C77.6635 53.7707 77.6635 53.887 77.722 53.887Z" fill="#202B59"/>
<path d="M75.613 65.1053C76.1983 65.396 76.7836 65.7448 77.2518 66.1517C77.72 66.4424 78.2467 66.7912 78.6564 67.14C78.4808 67.6631 78.0712 67.8375 77.72 67.9538C77.3103 68.0701 76.7836 68.1863 76.3739 68.0119C75.9642 67.8375 75.7886 67.3725 75.6716 66.9656C75.496 66.4424 75.3789 65.861 75.3789 65.2797C75.3789 65.1634 75.496 65.0472 75.613 65.1053Z" fill="white"/>
<path d="M65.6049 52.6081C67.1266 53.3056 68.5312 53.9451 70.2285 54.1195C72.1013 54.2939 73.9742 53.8288 75.7885 53.2475C78.949 52.143 82.3435 50.4571 84.1579 47.4924C85.2113 45.8065 85.5625 43.9463 85.2699 42.0279C85.2699 41.9117 85.4454 41.7954 85.504 41.9698C86.7916 45.3415 84.509 49.062 81.8753 51.0385C80.3536 52.2011 78.5978 53.0731 76.842 53.7126C74.9692 54.4102 72.9793 54.9915 70.9308 54.9915C69.058 54.9915 66.5998 54.4683 65.4878 52.7825C65.4293 52.7243 65.4878 52.5499 65.6049 52.6081Z" fill="#202B59"/>
<path d="M58.2904 56.0362C58.9342 59.9893 62.6799 62.7215 66.7182 62.082C70.6981 61.4426 73.4488 57.7221 72.805 53.7109C72.1612 49.7579 68.4155 47.0257 64.3772 47.6651C60.3388 48.3627 57.6466 52.0832 58.2904 56.0362Z" fill="#36D7BE"/>
<path d="M67.4206 52.2595C67.5962 51.9688 67.7718 51.7363 67.9474 51.4456C68.4156 51.4456 68.5912 51.0387 68.4156 50.8061C69.352 49.4691 70.464 48.2483 71.576 47.0275C74.0927 44.3534 77.1361 41.2724 81.0573 40.9817C84.3934 40.7492 87.3782 43.0745 88.7243 45.923C88.7829 45.9811 88.8999 45.9811 88.8414 45.8649C88.7829 45.6323 88.7829 45.3998 88.7243 45.1673C88.8414 45.1673 88.8999 45.1091 88.8999 44.9929C88.4902 43.4814 89.3681 43.8884 88.6658 42.4932C87.7879 40.6911 85.6224 38.1914 84.5104 37.3775C82.6376 35.9242 80.0039 35.6335 77.7213 36.0986C75.3803 36.6218 73.2733 37.8426 71.6346 39.5284C69.9373 41.2724 68.6497 43.4233 67.7718 45.6905C67.3621 46.795 66.9524 47.9576 66.7183 49.1203C66.6013 49.7598 66.7183 50.5736 67.128 51.0387C66.9524 51.3293 66.7768 51.62 66.6013 51.8525C66.3086 52.3757 67.128 52.7827 67.4206 52.2595Z" fill="#36D7BE"/>
<path d="M18.0837 55.3966C18.4934 60.6867 20.776 65.8023 24.1705 69.8135C25.8678 71.8481 27.9747 73.7084 30.5499 74.6966C31.3693 74.9873 32.1887 75.2198 33.008 75.2779C33.2421 75.3361 33.4763 75.3361 33.7689 75.3361C34.12 75.3361 34.4712 75.3361 34.8224 75.3361C34.9979 75.3361 35.115 75.3361 35.2906 75.3361C36.7537 75.2779 38.2754 75.1036 39.7386 75.2198C46.001 75.6849 51.0343 79.8704 56.3602 82.6027C58.9939 83.9397 61.8617 85.1024 64.8466 85.2768C67.8899 85.5093 70.7578 84.6373 73.3915 83.2421C75.557 82.1376 78.4248 80.6843 79.1856 78.1846C79.3027 77.7195 79.3612 77.2545 79.3027 76.7894C79.1856 75.4523 78.4248 74.1734 77.0786 73.8246C77.2542 73.6502 77.0786 73.534 76.9616 73.5921C76.3178 73.7084 76.2007 73.999 76.2593 74.1734C75.9081 74.406 75.4984 74.5222 75.1473 74.5804C74.5035 74.6385 73.8597 74.5804 73.2159 74.3478C71.7527 73.7665 70.6407 72.5457 69.5287 71.4993C69.1775 71.1505 68.8264 70.8017 68.4752 70.5111C67.5973 69.6391 66.7194 68.8252 65.8415 67.9532C63.4419 65.6279 61.1009 63.3026 58.7598 60.8611C54.2532 56.2686 48.0494 51.3854 43.9525 46.5023C42.0212 44.2351 39.446 42.3749 38.2169 39.6426C37.6316 38.3056 38.334 37.0848 37.8658 35.6896C37.4561 34.4688 38.1584 33.2481 36.8708 32.9574C31.3693 31.8529 26.4531 36.6779 23.1756 40.3984C21.3027 42.5493 19.7225 44.9908 18.7861 47.6649C18.1423 50.1647 17.9082 52.7806 18.0837 55.3966Z" fill="#36BFE3"/>
<path d="M94.8675 121.669C95.0431 121.494 95.2187 121.32 95.5113 121.146L129.925 106.089C130.92 105.624 132.266 105.682 132.968 106.264L153.336 122.134C154.623 122.948 153.862 125.854 152.867 126.319L118.454 141.376C117.459 141.841 116.113 141.783 115.41 141.201L95.0431 125.331C94.3408 124.75 93.8726 122.134 94.8675 121.669Z" fill="#202B59"/>
<path d="M101.363 125.622C102.241 126.261 103.236 126.959 104.231 127.714L137.357 112.542C136.772 112.077 136.187 111.612 135.602 111.146L101.363 125.622Z" fill="#36D7BE"/>
<path d="M97.3257 122.541C97.2672 122.541 98.9644 123.878 101.422 125.622L135.719 111.205C133.144 109.17 131.271 107.717 131.212 107.659C130.92 107.426 97.5598 122.425 97.3257 122.541Z" fill="#FF88C4"/>
<path d="M104.293 127.716C109.677 131.552 116.232 136.145 116.466 136.261C116.934 136.377 148.714 123.007 150.061 122.542C150.061 122.542 142.92 116.903 137.419 112.543L104.293 127.716Z" fill="#FFCE76"/>
<path d="M86.0903 122.541C86.5585 123.82 87.7876 124.285 89.0752 123.995C90.4798 123.646 91.8259 122.89 93.1135 122.193C94.4596 121.495 95.6887 120.507 97.2104 120.216C98.7906 119.925 100.371 119.809 101.892 119.286C103.355 118.763 104.702 117.833 106.282 117.484C106.75 117.368 106.867 117.077 107.335 117.135C107.569 117.426 108.155 118.065 108.389 118.356C109.325 119.751 110.086 121.553 111.959 121.902C113.656 122.251 114.885 121.03 114.71 119.46C114.651 118.588 114.3 117.775 114.007 116.961C113.656 116.031 112.72 115.1 112.251 114.228C111.432 112.775 110.847 111.496 109.676 110.275C109.91 110.217 110.203 110.101 110.437 110.043C112.661 109.52 115.061 110.101 116.641 111.787C117.811 113.066 118.982 115.159 121.206 114.577C122.377 114.287 122.786 113.589 122.845 112.426C123.606 113.008 124.484 113.008 125.186 112.717C126.649 112.078 127.293 110.334 127 108.88C126.708 107.136 125.42 105.683 124.074 104.578C123.957 104.462 123.84 104.404 123.723 104.346C124.718 103.997 125.713 103.765 126.708 103.648C127.527 103.532 128.346 103.358 129.107 103.067C130.57 102.428 131.448 100.858 130.629 99.3465C129.692 97.4862 127.585 97.1956 125.654 97.4281C117.285 98.5326 108.623 102.486 101.131 106.206C98.1468 107.718 95.279 109.345 92.4112 111.031C90.2457 112.31 87.9632 113.24 86.0903 114.926C85.9733 114.984 85.9147 115.1 85.7977 115.159C86.2659 115.624 86.7926 116.089 87.3779 116.496C86.0318 118.123 85.3295 120.507 86.0903 122.541Z" fill="#FFC5C5"/>
<path d="M89.015 112.542C88.8979 112.426 88.8394 112.426 88.7223 112.426C88.8394 112.368 89.015 112.309 89.132 112.251C92.7021 110.449 96.3308 108.647 99.9009 106.787C102.886 105.275 105.871 103.764 108.973 102.369C109.499 102.136 109.968 101.904 110.494 101.671C110.787 101.555 111.138 101.381 111.489 101.264C114.65 99.9272 117.927 98.7064 121.263 97.8926C124.131 97.195 128.93 95.7998 130.803 99.0552C131.622 100.45 131.154 102.253 129.691 103.008C128.813 103.473 127.818 103.59 126.882 103.764C126.062 103.938 125.243 104.171 124.365 104.229C125.009 104.868 125.594 105.566 126.121 106.322C127.174 107.775 127.76 109.635 126.94 111.379C126.589 112.193 125.945 112.833 125.126 113.123C124.482 113.356 123.546 113.298 122.902 112.891C122.843 113.123 122.726 113.298 122.609 113.53C122.083 114.46 121.029 115.158 119.917 114.925C118.864 114.693 118.161 113.821 117.517 113.065C115.645 110.914 112.66 109.461 109.85 110.449C110.377 110.972 110.787 111.554 111.197 112.135C112.367 113.763 113.538 115.332 114.181 117.251C114.65 118.646 115.235 121.146 113.655 122.134C112.016 123.122 110.202 121.727 109.265 120.448C108.095 118.82 106.924 116.088 104.525 116.204C104.232 116.204 104.115 115.739 104.407 115.739C105.871 115.623 107.1 116.495 107.978 117.541C109.031 118.82 109.792 120.797 111.431 121.494C112.25 121.843 113.304 121.669 113.538 120.681C113.772 119.809 113.538 118.82 113.245 117.948C112.718 116.204 111.665 114.693 110.845 113.123C110.319 112.135 109.616 111.263 108.797 110.507C108.387 110.1 107.919 109.635 107.334 109.403C107.217 109.345 107.158 109.345 107.1 109.228C106.924 109.054 107.041 108.88 107.275 108.88C107.451 108.88 107.744 109.054 107.861 109.112C108.329 109.345 108.738 109.635 109.148 109.926C111.138 109.112 113.304 109.345 115.176 110.391C116.171 110.914 116.991 111.67 117.752 112.484C118.454 113.24 119.156 114.46 120.327 114.228C121.614 113.995 122.083 112.484 121.907 111.379C121.731 110.217 121.029 109.112 120.327 108.182C119.098 106.554 117.4 105.217 115.528 104.403C114.474 103.938 113.421 103.59 112.309 103.415C111.782 103.299 111.197 103.299 110.67 103.241C110.377 103.241 110.085 103.241 109.733 103.241C109.441 103.241 109.09 103.183 108.797 103.183C105.929 104.52 103.12 105.915 100.252 107.368C96.6234 109.17 93.0533 111.031 89.4246 112.833C89.1905 112.949 88.9564 113.065 88.7223 113.181C88.6053 113.24 88.5467 113.24 88.4297 113.181C88.4882 113.007 88.6053 112.833 88.7223 112.716C89.0735 112.6 89.0735 112.542 89.015 112.542ZM128.638 102.659C129.398 102.427 130.101 102.02 130.335 101.264C130.569 100.509 130.335 99.6365 129.808 99.0552C128.696 97.7182 126.765 97.66 125.184 97.8926C123.429 98.1251 121.673 98.5901 119.976 99.0552C118.278 99.5203 116.64 100.102 115.001 100.683C116.288 100.509 117.517 100.392 118.747 100.625C119.741 100.799 120.678 101.264 121.497 101.787C122.317 102.369 123.136 103.066 123.838 103.764C125.302 103.066 127.057 103.066 128.638 102.659ZM110.553 102.601C111.138 102.543 111.723 102.543 112.309 102.601C113.362 102.718 114.474 102.892 115.469 103.299C117.576 104.055 119.507 105.392 120.912 107.136C122.024 108.473 123.253 110.507 123.078 112.368C123.37 112.484 123.663 112.658 124.014 112.658C124.424 112.716 124.892 112.658 125.302 112.426C126.004 112.077 126.414 111.379 126.648 110.682C127.174 108.88 126.121 107.194 125.009 105.857C124.541 105.334 124.072 104.81 123.604 104.287C123.546 104.229 123.487 104.171 123.429 104.113C122.726 103.415 121.907 102.718 121.088 102.194C120.268 101.671 119.332 101.264 118.337 101.148C117.283 101.032 116.23 101.148 115.176 101.264C114.24 101.381 113.304 101.555 112.367 101.729C111.606 102.02 110.904 102.369 110.143 102.659C110.26 102.601 110.377 102.601 110.553 102.601Z" fill="white"/>
<path d="M101.835 118.646C101.308 118.937 100.84 119.228 100.312 119.46C100.84 119.286 101.308 118.995 101.835 118.705C101.835 118.705 101.835 118.705 101.835 118.646Z" fill="#FFC5C5"/>
<path d="M80.0039 114.403C80.121 116.67 80.4721 118.879 80.9989 121.03C81.2915 122.076 81.5841 123.123 81.9938 124.169C82.1109 124.46 82.1694 124.867 82.5791 124.925C82.9302 125.041 86.5589 125.506 86.91 125.39C91.0654 123.646 92.1775 121.146 96.2743 119.228C96.3914 119.577 96.9181 119.519 96.8011 119.17C96.9766 118.937 97.1522 118.821 97.3278 118.763C97.4448 118.705 97.3863 118.472 97.2107 118.53C97.0352 118.589 96.8596 118.647 96.684 118.705C96.4499 117.193 96.6255 115.508 95.9232 114.112C95.2208 112.659 93.9333 112.252 92.4116 112.426C88.3147 112.892 84.2763 113.531 80.1795 114.054C80.1209 114.17 80.0039 114.287 80.0039 114.403Z" fill="#FFC5C5"/>
<path d="M12.3472 124.982C14.1615 128.587 17.2635 131.551 20.7751 133.586C24.6963 135.853 29.0859 137.074 33.5339 137.655C38.5087 138.353 43.6005 138.411 48.5753 138.178C53.6085 137.946 58.5833 137.19 63.4996 136.202C66.0162 135.737 68.5329 135.272 71.0495 134.807C73.3321 134.4 77.3704 133.237 79.4188 132.191C82.8719 130.447 83.6913 127.889 84.6277 124.168C85.3886 121.029 84.9203 117.541 83.2816 114.693C82.8719 114.053 82.5208 113.472 82.0525 112.949C80.5308 111.205 78.8336 109.635 76.8437 108.705C75.5561 108.124 74.1514 107.775 72.7468 107.891C71.2836 108.008 70.1131 108.589 68.884 109.403C67.772 110.159 66.66 110.74 65.2554 110.682C63.9093 110.624 62.5631 110.1 61.3926 109.461C59.1101 108.182 57.2372 106.322 55.0132 104.985C52.9648 103.706 50.6237 103.008 48.2241 103.648C45.883 104.287 43.9517 105.857 41.6691 106.554C39.0354 107.368 36.4602 106.38 34.0021 105.392C32.2463 104.694 30.549 104.055 28.7347 103.764C27.6812 103.415 26.6277 103.124 25.5157 102.892C23.2917 102.369 21.0092 102.136 18.9022 103.124C17.1464 103.996 15.7418 105.45 14.5712 106.961C13.2251 108.763 11.9961 110.74 11.2352 112.833C9.94759 116.786 10.4744 121.262 12.3472 124.982Z" fill="#36BFE3"/>
<path d="M80.4141 116.262C80.4141 117.832 80.5896 125.564 82.8722 127.249C83.2234 127.482 85.3303 127.191 85.74 126.959C86.2667 126.668 86.7935 126.319 87.3202 126.029C88.3152 125.447 89.3101 124.866 90.3051 124.285C90.4221 124.227 90.5392 124.052 90.4221 123.878C88.6663 120.274 88.8419 116.204 89.0175 112.251C89.0175 112.077 88.8419 111.902 88.6663 111.961C86.735 112.368 84.8036 112.716 82.8722 113.181C82.2284 112.891 81.5261 113.065 81.0579 113.588C80.4726 114.286 80.4141 115.39 80.4141 116.262Z" fill="#36BFE3"/>
<path d="M38.0386 36.0386C38.4483 36.0386 38.858 36.0967 39.2677 36.213C39.5603 36.2711 39.5603 36.8525 39.2092 36.8525C38.9165 36.8525 38.6824 36.8525 38.4483 36.8525C38.4483 38.4802 38.9165 40.0498 39.9115 41.3868C40.8479 42.7239 42.077 43.8284 43.2475 44.991C45.7642 47.4907 48.2223 49.9904 50.7389 52.4901C55.7722 57.4895 60.864 62.3727 66.1314 67.0814C67.6531 68.4185 69.1748 69.7555 70.6965 71.0926C71.4574 71.732 72.2182 72.4296 72.9791 73.0691C73.3302 73.3598 73.7984 73.7085 74.2667 73.7667C74.7934 73.8248 75.3787 73.4179 75.3787 72.8366C75.3787 72.6622 75.6713 72.604 75.7298 72.8366C75.8469 73.4179 75.5542 73.8248 75.086 74.1155C74.5008 74.4061 73.9155 74.2899 73.3302 73.9992C72.5694 73.5923 71.8671 72.9528 71.1647 72.4296C70.4039 71.7902 69.7016 71.2089 68.9993 70.5694C66.0729 68.0116 63.1466 65.3956 60.2788 62.7215C54.5432 57.3733 48.9831 51.7925 43.4231 46.2699C42.0185 44.8748 40.4382 43.4796 39.2677 41.8519C38.1557 40.2242 37.5704 38.3639 37.629 36.3874C37.629 36.1549 37.8045 35.9805 38.0386 36.0386Z" fill="white"/>
<path d="M110.086 81.5577C112.544 84.1737 115.47 86.4409 117.46 89.5219C117.577 89.6963 117.811 89.7544 117.987 89.58C120.094 87.0222 123.605 85.6852 126.824 86.2665C128.405 86.5571 129.751 87.4873 131.272 87.7198C132.794 87.9523 134.433 87.4873 135.779 86.6734C138.53 84.9876 140.227 81.7903 141.163 78.7674C142.1 75.8026 142.568 71.8496 140.227 69.3499C139.174 68.2454 137.827 67.3734 136.423 66.6758C135.135 66.0363 133.789 65.455 132.384 65.6875C132.033 65.455 131.624 65.2806 131.272 65.1062C128.112 63.6529 124.717 63.8273 121.557 65.3387C119.918 66.0945 118.397 67.199 117.05 68.3616C115.704 69.5243 114.358 70.7451 113.246 72.0821C112.017 73.5354 111.373 75.4538 110.612 77.1397C110.203 78.0117 109.735 78.8836 109.442 79.7556C109.091 80.5695 109.559 81.0346 110.086 81.5577Z" fill="#FFC5C5"/>
<path d="M123.199 74.9306C123.96 77.721 126.769 80.4532 130.339 80.6276C130.573 80.6276 130.807 80.5114 130.866 80.337C131.158 79.5231 131.392 78.6511 131.627 77.8373C131.685 77.4885 131.275 77.3141 131.041 77.5466C130.046 76.3258 127.881 76.4421 127.061 74.9888C126.184 73.4773 126.418 71.2102 127.12 69.6406C127.53 68.7686 128.232 67.9547 129.344 67.6059C129.812 67.4315 130.339 67.3153 130.866 67.3734C131.451 67.4315 131.861 67.7222 132.387 67.7803C133.207 67.8966 133.382 67.4315 133.441 66.9083C133.558 65.8038 133.675 64.6993 133.792 63.5366C133.792 63.3041 133.324 63.246 133.324 63.5366C133.324 63.5948 133.324 63.711 133.324 63.7692C133.148 63.7692 133.031 63.7692 132.856 63.7692C132.739 63.6529 132.563 63.5948 132.387 63.5948C132.153 63.5948 131.978 63.6529 131.802 63.711C130.983 63.711 130.163 63.7692 129.344 63.8273C128.408 63.9436 127.179 63.9436 126.476 64.6412C125.774 65.2806 125.306 66.2107 124.837 66.9665C124.311 67.8385 123.842 68.7686 123.55 69.7568C122.965 71.4427 122.73 73.2448 123.199 74.9306Z" fill="#36D7BE"/>
<path d="M132.755 62.0744L157.568 67.4609L153.095 87.7917L128.281 82.4052L132.755 62.0744Z" fill="#36D7BE"/>
<path d="M132.737 62.0824C132.151 64.6984 137.243 68.0119 144.149 69.4653C150.997 70.9767 157.025 70.0466 157.61 67.4306C158.196 64.8146 153.104 61.5011 146.198 60.0478C139.292 58.5944 133.263 59.4664 132.737 62.0824Z" fill="#36D7BE"/>
<path d="M134.844 62.5483C134.376 64.5829 138.648 67.257 144.325 68.4778C150.002 69.6986 154.977 69.0591 155.387 67.0245C155.855 64.9898 151.583 62.3157 145.905 61.0949C140.287 59.8742 135.312 60.5136 134.844 62.5483Z" fill="#202B59"/>
<path d="M128.229 82.4301C127.644 85.046 132.735 88.3596 139.641 89.8129C146.489 91.3244 152.517 90.3943 153.103 87.7783C153.688 85.1623 148.596 81.8487 141.69 80.3954C134.842 78.9421 128.814 79.8141 128.229 82.4301Z" fill="#36D7BE"/>
<path d="M119.043 72.7218C120.915 73.3613 122.905 72.1987 124.017 70.6872C124.661 72.2568 125.129 76.0935 127.295 76.0935C129.46 76.0935 130.455 74.0008 130.631 72.1987C130.806 70.5709 130.748 68.7107 130.221 67.0249C129.87 65.0483 128.524 63.3044 126.651 62.4905C124.427 61.4441 121.735 61.6767 119.686 63.0137C117.755 64.2345 112.019 68.42 111.258 75.9191C111.083 78.1863 116.701 71.9661 119.043 72.7218Z" fill="#FFC5C5"/>
<path d="M106.457 85.1612C106.574 85.8588 107.042 86.382 107.569 86.8471C108.095 87.3121 108.622 87.8353 109.149 88.3004C111.139 90.1025 113.304 91.7883 115.821 92.7185C115.938 92.8347 116.113 92.8929 116.348 92.8929C116.582 92.951 116.757 92.951 116.757 92.8347C117.225 92.6022 117.518 92.0209 117.752 91.6139C118.279 90.8001 118.806 89.9281 119.332 89.1142C119.684 88.591 120.152 88.0097 119.859 87.3703C119.567 86.6727 118.806 86.1495 118.337 85.5681C117.752 84.9287 117.225 84.3474 116.64 83.7079C115.47 82.429 114.241 81.0919 113.07 79.813C112.368 78.9992 111.197 77.3133 109.91 77.6621C109.266 77.8365 108.973 78.5341 108.681 79.1154C108.329 79.7549 107.978 80.3943 107.686 81.0338C107.1 82.2546 106.222 83.766 106.457 85.1612Z" fill="#36BFE3"/>
<path d="M157.728 95.9159C157.201 94.9276 157.318 94.5789 154.04 95.9159C150.763 97.253 127.703 106.264 124.953 107.601C122.202 108.938 121.558 109.635 121.09 111.902C120.622 114.17 118.046 130.33 117.695 131.493C117.344 132.598 117.754 133.935 118.164 134.69C118.573 135.504 122.67 133.411 122.67 133.411L154.04 109.751L157.728 95.9159Z" fill="white"/>
<path d="M118.163 134.051L121.967 111.496C122.084 110.682 122.903 109.752 123.781 109.403C123.781 109.403 156.322 95.8 156.381 95.7418C158.136 94.9861 159.775 96.3813 159.483 98.0671C159.307 99.2298 159.073 100.392 158.897 101.613C158.253 105.334 157.668 108.996 157.024 112.717C156.615 115.158 156.205 117.6 155.795 119.983C155.678 120.797 154.859 121.727 153.981 122.076L121.382 135.737C119.977 136.9 117.987 134.807 118.163 134.051Z" fill="#202B59"/>
<path d="M138.121 119.634C139.584 123.005 143.213 120.041 143.564 117.599C143.74 116.378 143.447 114.751 142.101 114.46C139.584 113.879 137.185 117.425 138.121 119.634Z" fill="#36D7BE"/>
<path d="M91.769 102.775C92.6469 102.368 92.9395 101.147 93.2322 100.333C93.6418 99.2868 94.0515 98.2986 94.5783 97.3103C95.105 96.3221 95.6317 95.3338 96.2755 94.4037C96.3341 94.3456 96.3926 94.2293 96.4511 94.1712C96.2755 93.9968 96.0414 93.7642 95.8659 93.5898C95.8073 93.7061 95.7488 93.7642 95.6317 93.8805C94.988 94.7525 94.4612 95.6826 93.9345 96.6709C93.4077 97.6591 92.9395 98.6474 92.5298 99.6356C92.3543 100.101 92.1787 100.624 91.9446 101.089C91.769 101.554 91.4178 101.961 91.3008 102.484C91.3008 102.659 91.5349 102.891 91.769 102.775Z" fill="white"/>
<path d="M81.1732 112.135C81.5244 111.205 82.2266 110.449 82.6363 109.577C83.046 108.705 83.3386 107.775 83.5142 106.845C83.8654 104.578 83.3973 102.253 82.9876 100.044C82.812 98.939 82.5779 97.8345 82.3438 96.7881C82.1097 95.6836 81.7 94.5791 81.6415 93.4745C81.5829 92.4282 82.2266 91.3818 82.6948 90.4517C83.1631 89.4053 83.6313 88.3007 84.2751 87.3125C84.3921 87.1381 84.6263 87.2544 84.5678 87.4869C84.2752 88.6495 83.6899 89.7541 83.2217 90.8586C82.9876 91.3818 82.6949 91.9631 82.5194 92.5444C82.2852 93.242 82.4607 93.8233 82.6363 94.4628C83.2216 96.6718 83.6899 98.939 84.0996 101.206C84.4508 103.299 84.7434 105.45 84.3337 107.601C84.1581 108.589 83.8069 109.461 83.3386 110.333C82.929 111.147 82.4022 112.019 81.5828 112.426C81.3487 112.542 81.1147 112.31 81.1732 112.135Z" fill="#FFCE76"/>
<path d="M33.71 75.3371C33.4759 75.6277 33.2418 75.9184 33.0662 76.2091C33.7685 75.9184 34.5294 75.6277 35.2317 75.2789C35.5243 75.1627 35.8169 75.0464 36.051 74.9302C40.9088 72.9536 45.8835 70.4539 51.268 70.7446C53.5505 70.8609 55.7746 71.4422 57.7645 72.4304C58.7594 72.8955 59.7544 73.535 60.6908 74.1744C61.6272 74.8139 62.3881 75.6859 63.3245 76.3253C63.5001 76.4416 63.7342 76.2091 63.6172 76.0347C62.9734 74.9302 61.9199 74.0582 60.9249 73.3024C59.93 72.5467 58.7594 71.9073 57.6474 71.3841C55.4819 70.3958 53.1409 69.8726 50.7413 69.7563C48.1076 69.6982 45.5324 70.2214 43.0743 71.0934C40.3235 72.0235 37.6313 73.1862 34.939 74.2907C34.6464 74.407 34.3538 74.5232 34.0611 74.6395C33.6515 74.8139 33.3003 74.9883 32.8906 75.1045C33.2418 75.3371 33.4759 75.3371 33.71 75.3371Z" fill="white"/>
<path d="M74.1491 81.6164C74.8514 81.6164 75.4952 81.5001 76.139 81.3838C77.4851 81.0932 78.7727 80.6281 80.0018 79.8724C80.8797 79.3492 81.6991 78.7097 82.577 78.0703C82.694 78.0122 82.7525 77.954 82.8696 77.8378C82.6355 77.7215 82.4014 77.6052 82.1087 77.489C82.2258 77.3727 82.3429 77.2564 82.4599 77.082C82.4014 77.1402 82.3429 77.1402 82.2843 77.1983C82.1673 77.2564 82.1087 77.3146 81.9917 77.3727C81.2308 77.8959 80.5285 78.3609 79.7677 78.826C78.0704 79.8143 76.1975 80.4537 74.2076 80.5119C73.6224 80.6863 73.5638 81.6745 74.1491 81.6164Z" fill="white"/>
<path d="M105.17 38.3072C105.755 38.9467 106.282 39.7024 106.516 40.5744C106.867 41.9696 106.341 43.3066 105.99 44.6437C105.697 45.8645 105.521 47.0853 105.931 48.306C106.282 49.4106 106.926 50.3407 107.804 51.0964C111.901 54.8169 118.046 54.2356 123.138 54.9332C126.006 55.3401 128.756 56.154 131.097 57.9561C133.263 59.5838 135.077 61.5603 137.126 63.2461C139.291 65.0482 141.749 66.1528 144.559 66.6178C147.485 67.0829 150.528 66.8504 153.455 66.6178C153.572 66.6178 153.689 66.5016 153.689 66.4434C153.806 66.5597 153.981 66.5016 153.981 66.3272C153.923 65.3389 153.513 64.4088 152.928 63.6531C152.226 62.7229 151.231 61.9672 150.353 61.1534C149.533 60.3395 148.831 59.5256 148.304 58.4211C147.368 56.3284 147.309 53.8286 147.134 51.5615C146.9 49.2943 146.607 46.969 145.261 45.0506C143.798 42.9578 141.34 42.144 138.999 41.5045C137.77 41.1557 136.54 40.8069 135.428 40.2256C134.316 39.6443 133.38 38.8304 132.678 37.8422C131.156 35.8075 130.395 33.366 129.166 31.2151C127.82 28.8897 125.947 27.0295 123.548 25.8087C120.914 24.4717 117.929 23.8903 115.003 23.7741C113.364 23.7159 111.725 23.7741 110.145 23.8322C108.565 23.9485 106.984 24.0066 105.463 24.2973C102.888 24.8205 100.195 26.2156 99.3176 28.8897C97.9715 33.1916 102.829 35.6331 105.17 38.3072Z" fill="#202B59"/>
<path d="M112.486 33.539C112.486 33.7134 112.72 33.7134 112.72 33.539C112.837 33.074 112.954 32.4927 113.189 32.1439C113.423 31.7951 113.832 31.5625 114.125 31.4463C113.891 31.33 113.481 31.2137 113.247 30.8649C112.954 30.458 112.779 29.586 112.662 28.9466C112.662 28.8303 112.486 28.8303 112.486 28.9466C112.428 29.5279 112.252 30.2836 112.018 30.6906C111.784 31.0975 111.433 31.2719 111.199 31.33C111.433 31.5044 111.784 31.7369 112.077 32.1439C112.311 32.3764 112.428 33.0159 112.486 33.539Z" fill="white"/>
<path d="M138.353 52.8979C138.353 52.8979 138.529 52.3166 138.939 51.9678C139.348 51.5608 139.934 51.3864 139.934 51.3864C139.934 51.3864 139.465 51.3283 138.939 50.8633C138.529 50.4563 138.353 49.875 138.353 49.875C138.353 49.875 138.236 50.4563 137.885 50.8633C137.475 51.2702 136.832 51.4446 136.832 51.4446C136.832 51.4446 137.3 51.4446 137.768 51.9096C138.236 52.3166 138.353 52.8979 138.353 52.8979Z" fill="white"/>
<path d="M122.962 39.5859C122.962 39.5859 123.255 38.8302 123.782 38.307C124.309 37.7838 125.128 37.4932 125.128 37.4932C125.128 37.4932 124.484 37.435 123.782 36.7374C123.197 36.1561 122.962 35.4004 122.962 35.4004C122.962 35.4004 122.845 36.2142 122.26 36.7374C121.733 37.2606 120.797 37.4932 120.797 37.4932C120.797 37.4932 121.499 37.6094 122.143 38.1908C122.787 38.7721 122.962 39.5859 122.962 39.5859Z" fill="white"/>
<path d="M117.342 49.7592C117.342 49.7592 117.517 49.236 117.927 48.8291C118.278 48.4803 118.863 48.2478 118.863 48.2478C118.863 48.2478 118.395 48.1896 117.927 47.7246C117.517 47.3177 117.342 46.7363 117.342 46.7363C117.342 46.7363 117.224 47.3177 116.873 47.7246C116.464 48.1315 115.82 48.2478 115.82 48.2478C115.82 48.2478 116.347 48.3059 116.756 48.771C117.224 49.1779 117.342 49.7592 117.342 49.7592Z" fill="white"/>
<path d="M139.993 54.1194C140.051 54.0031 140.11 53.8868 140.227 53.8287C140.461 53.6543 140.578 53.6543 140.754 53.6543C140.871 53.6543 140.929 53.6543 140.988 53.7124C141.105 53.7706 141.163 53.8287 141.222 53.8868C141.28 53.945 141.339 54.0612 141.339 54.1194C141.397 54.1775 141.397 54.2938 141.397 54.41C141.339 54.7007 141.222 54.8169 141.163 54.8751C140.929 55.0495 140.812 55.0495 140.637 55.0495C140.52 55.0495 140.461 55.0495 140.344 54.9913C140.227 54.9332 140.168 54.8751 140.11 54.8169C140.051 54.7588 139.993 54.6426 139.993 54.5844C139.934 54.5263 139.934 54.41 139.934 54.2938C139.993 54.2356 139.993 54.1775 139.993 54.1194Z" fill="white"/>
<path d="M82.8132 29.8772C82.9303 30.2842 83.1644 30.6329 83.457 30.9817C84.2764 31.9119 85.5054 32.3769 86.6175 32.9001C89.4267 34.1209 90.6558 36.9113 93.9333 37.3182C95.3965 37.4926 97.2108 36.6206 97.0937 34.9348C97.0352 34.1209 96.6255 33.3652 96.1573 32.7257C93.9333 29.354 89.8364 24.064 85.0958 25.1685C83.0473 25.6917 82.1694 28.017 82.8132 29.8772Z" fill="#202B59"/>
<path d="M109.264 15.8674C109.381 17.0882 110.201 18.1928 111.957 18.5997C113.42 18.9485 115.059 18.7741 116.171 17.7277C117.107 16.9138 117.634 15.6349 117.4 14.356C117.166 13.0771 116.112 12.0888 114.942 11.6238C111.723 10.3448 109.03 13.3096 109.264 15.8674Z" fill="#202B59"/>
<path d="M90.8295 123.006C91.5903 122.716 92.2341 122.134 92.995 121.727C94.3996 120.913 95.9213 120.332 97.443 119.867C99.0232 119.402 100.662 119.053 102.242 118.646C103.061 118.472 103.822 118.239 104.583 117.949C105.051 117.774 105.461 117.6 105.929 117.484C106.28 117.367 106.69 117.193 107.041 117.135C106.748 117.774 105.987 118.065 105.402 118.356C104.7 118.646 103.998 118.937 103.295 119.169C101.832 119.634 100.31 119.983 98.7891 120.39C97.2674 120.797 95.7457 121.262 94.3411 121.902C92.995 122.541 91.7659 123.588 90.3027 123.878C90.1857 123.878 90.0686 123.878 90.0101 123.762C89.5419 123.181 90.5368 123.122 90.8295 123.006Z" fill="white"/>
<path d="M88.4916 118.24C88.6086 119.402 88.7842 120.565 89.0768 121.728C89.1939 122.251 89.428 122.774 89.6036 123.239C89.7792 123.646 89.8377 124.111 90.2474 124.285C90.54 123.762 90.2474 123.355 90.1303 122.948C90.0133 122.483 89.8962 122.018 89.7792 121.553C89.5451 120.565 89.3695 119.577 89.2524 118.588C89.1354 117.542 89.1354 116.496 89.1354 115.449C89.1354 114.519 89.1354 113.531 89.7206 112.717C89.8377 112.484 89.7206 112.31 89.4865 112.252C88.9598 112.659 88.8427 112.833 88.7842 113.008C88.4916 113.589 88.3745 114.228 88.3745 114.868C88.316 116.089 88.3745 117.193 88.4916 118.24Z" fill="white"/>
<path d="M81.5838 116.961C81.7009 115.973 81.935 114.171 83.047 113.764C83.2226 114.403 82.9299 114.868 82.8129 115.391C82.6373 115.973 82.5203 116.612 82.4617 117.194C82.3447 118.356 82.3447 119.577 82.4032 120.74C82.4617 123.007 82.5788 125.681 84.0419 127.541C84.159 127.716 83.9249 127.948 83.8078 127.774C83.047 126.844 82.4617 125.739 82.052 124.634C81.6424 123.472 81.5838 122.135 81.5838 120.914C81.4668 119.577 81.4668 118.24 81.5838 116.961Z" fill="white"/>
<path d="M33.8238 105.624C35.0529 105.799 36.3405 105.915 37.5696 106.089C38.7986 106.322 40.0862 106.554 41.3153 106.438C43.7734 106.264 45.5292 104.578 47.7532 103.764C52.2012 102.078 56.0055 106.322 59.283 108.647C61.0388 109.868 63.2043 111.205 65.4283 110.798C66.5403 110.624 67.3597 109.926 68.2961 109.403C69.1155 108.996 69.9348 108.705 70.8127 108.589C72.627 108.298 74.4999 108.531 76.1972 109.229C77.953 109.984 79.065 111.263 80.2941 112.658C81.4061 113.995 82.9278 115.274 84.8006 114.635C85.62 114.344 86.1467 113.763 86.849 113.24C87.4343 112.775 88.0781 112.31 88.7804 112.31C88.8389 112.31 88.956 112.31 89.0145 112.31C89.3072 112.368 89.3657 112.31 89.3657 112.193C87.5514 111.496 86.0297 113.007 84.4494 113.356C82.3425 113.821 81.1134 111.263 79.8844 110.042C77.3092 107.426 73.1538 106.322 69.5837 107.31C68.6472 107.543 67.7693 107.95 66.95 108.473C65.8965 109.112 64.9601 109.577 63.6725 109.287C61.507 108.822 59.6341 107.194 57.9954 105.857C56.2396 104.462 54.4838 103.067 52.3183 102.369C50.2113 101.671 48.1044 101.904 46.1145 102.892C45.178 103.357 44.3001 103.938 43.3637 104.345C42.3687 104.81 41.3153 105.043 40.2033 104.985C38.0963 104.869 35.6382 103.764 33.6483 104.927C33.4142 105.217 33.4727 105.624 33.8238 105.624Z" fill="#FFCE76"/>
<path d="M123.371 104.113C123.371 104.171 123.43 104.288 123.547 104.288C123.488 104.23 123.43 104.171 123.371 104.113Z" fill="white"/>
<path d="M64.3172 60.2226C60.8909 60.2226 58.1133 57.4637 58.1133 54.0605C58.1133 50.6573 60.8909 47.8984 64.3172 47.8984C67.7434 47.8984 70.521 50.6573 70.521 54.0605C70.521 57.4637 67.7434 60.2226 64.3172 60.2226Z" fill="white"/>
<path d="M124.308 68.3032C124.718 69.117 124.718 70.0472 124.718 70.9191C124.718 72.0237 124.893 73.0701 125.362 74.0583C125.713 74.8722 126.357 75.9186 127.351 75.9767C128.288 76.0348 129.049 74.8722 129.517 74.1746C130.629 72.4306 130.746 70.2216 130.395 68.245C130.102 66.5592 129.575 64.1758 127.937 63.1875C129.575 63.4782 130.219 64.9896 130.687 66.3848C131.273 68.245 131.565 70.1634 131.156 72.0818C130.805 73.7095 129.927 75.4535 128.522 76.3836C127.059 77.3137 125.596 76.1511 124.893 74.8722C124.367 73.942 124.074 72.8375 124.015 71.7911C123.898 70.6866 124.191 69.524 123.664 68.5357C123.43 68.1869 124.074 67.8381 124.308 68.3032Z" fill="white"/>
<path d="M116.933 79.465C119.157 78.8837 120.679 77.256 121.556 75.2214C121.966 74.2331 122.317 73.1867 122.786 72.1985C123.02 71.7334 123.254 71.2683 123.605 70.9195C123.605 70.9195 124.015 70.3963 124.132 70.5707C124.307 70.8614 123.898 71.4427 123.78 71.7334C123.546 72.2566 123.371 72.7798 123.195 73.303C122.786 74.3494 122.434 75.4539 121.966 76.4421C120.971 78.4187 119.274 79.8138 117.108 80.3952C116.991 80.4533 116.757 80.3952 116.699 80.2789C116.64 80.1626 116.582 80.1045 116.582 79.9882C116.64 79.6394 116.757 79.5232 116.933 79.465Z" fill="white"/>
<path d="M122.727 73.4769C122.785 73.1862 123.312 73.1862 123.312 73.535C123.371 74.2907 123.429 74.9883 123.605 75.6859C123.839 76.3835 124.19 77.0811 124.658 77.6624C125.127 78.2437 125.77 78.7088 126.414 79.1157C127.116 79.5226 127.877 79.8133 128.521 80.2784C128.638 80.3946 128.58 80.6853 128.404 80.6272C127.585 80.5109 126.765 80.104 126.063 79.697C125.302 79.2901 124.6 78.7669 124.073 78.0693C123.078 76.8485 122.434 75.1046 122.727 73.4769Z" fill="white"/>
<path d="M128.522 76.0342C128.581 75.9761 128.639 75.918 128.756 75.918C128.815 75.918 128.932 75.918 128.99 75.9761L129.576 76.4993C129.751 76.79 129.693 76.9062 129.693 76.9644C129.634 77.0225 129.576 77.0806 129.459 77.0806C129.4 77.0806 129.283 77.0806 129.225 77.0225C128.99 76.8481 128.815 76.6737 128.581 76.4993C128.464 76.2086 128.464 76.0924 128.522 76.0342Z" fill="white"/>
<path d="M129.866 74.6385C130.042 73.8828 130.217 73.127 130.393 72.3713C130.569 71.6156 130.744 70.8599 130.92 70.1041C130.978 69.7553 131.095 69.4066 131.154 69.0578C131.212 68.7671 131.622 67.6626 130.978 67.7788C131.154 67.3138 131.564 67.6626 131.622 68.0114C131.681 68.4183 131.505 68.8834 131.388 69.2903C131.271 69.8135 131.154 70.3367 131.037 70.8599C130.803 71.8481 130.569 72.8364 130.393 73.8246C130.159 74.8129 130.042 75.8593 129.691 76.8475C129.632 77.0219 129.398 76.9638 129.398 76.7894C129.457 76.0918 129.691 75.3361 129.866 74.6385Z" fill="white"/>
<path d="M128.231 81.3238C128.348 80.9169 128.406 80.3937 128.699 80.0449C128.816 79.8705 129.108 79.9868 129.05 80.2193C128.991 80.6262 128.757 80.975 128.699 81.3238C128.582 81.7308 128.582 82.0795 128.523 82.4865C128.523 83.3003 128.64 84.1142 129.05 84.8118C129.869 86.207 131.508 86.7301 132.854 87.4277C132.971 87.4859 132.913 87.7184 132.796 87.6603C131.215 87.1952 129.518 86.4395 128.64 84.9862C128.231 84.2886 128.055 83.4166 128.055 82.6027C128.055 82.1958 128.114 81.7308 128.231 81.3238Z" fill="white"/>
<path d="M137.944 78.8823C138.003 79.1149 138.12 79.4055 138.237 79.6381C139.524 82.3122 143.797 83.4748 146.138 81.4983C147.191 80.5682 147.777 79.0567 147.543 77.6616C147.133 74.8131 144.089 73.4179 141.456 73.8829C139.056 74.348 137.359 76.6152 137.944 78.8823Z" fill="white"/>
<path d="M137.066 57.4905C137.651 57.258 137.769 57.3161 137.769 57.3743C137.066 57.4905 137.066 57.4905 137.066 57.4905Z" fill="white"/>
<path d="M116.64 28.25C117.518 28.25 117.401 29.587 116.582 29.587C115.704 29.5289 115.821 28.25 116.64 28.25Z" fill="white"/>
<path d="M117.694 38.0156C118.045 38.0156 118.045 38.597 117.635 38.597C117.284 38.597 117.284 38.0156 117.694 38.0156Z" fill="white"/>
<path d="M135.488 44.4097C135.546 44.3516 135.605 44.3516 135.722 44.3516C135.371 44.526 135.371 44.4097 135.488 44.4097Z" fill="white"/>
<path d="M110.027 44.6426C110.788 44.6426 110.729 45.8634 109.969 45.8634C109.149 45.8634 109.208 44.6426 110.027 44.6426Z" fill="white"/>
<path d="M125.535 52.084C125.828 52.084 125.828 52.5491 125.535 52.5491C125.243 52.5491 125.243 52.084 125.535 52.084Z" fill="white"/>
<path d="M114.944 46.3281C115.12 46.3281 115.12 46.6188 114.944 46.6188C114.769 46.6188 114.769 46.3281 114.944 46.3281Z" fill="white"/>
<path d="M91.885 32.3761C91.9436 32.2599 91.9436 32.2017 92.0606 32.1436C92.2362 32.0273 92.3533 32.0273 92.4703 32.0273C92.9385 32.8412 92.88 32.8993 92.763 32.9575C92.5874 33.0737 92.4703 33.0737 92.3533 33.0737C91.8265 32.4924 91.8265 32.4343 91.885 32.3761Z" fill="white"/>
<path d="M89.5449 30.8086C89.6619 30.8086 89.6619 31.0411 89.5449 31.0411C89.4278 31.0411 89.4278 30.8086 89.5449 30.8086Z" fill="white"/>
<path d="M86.2656 29.2377C86.4997 29.4702 86.6753 29.7027 86.9094 29.9353C87.085 29.819 87.202 29.7027 87.2605 29.5865C87.3191 29.4702 87.4361 29.354 87.4946 29.2377C87.3776 28.947 87.085 28.6564 86.7923 28.4238C86.5582 28.7145 86.3826 28.947 86.2656 29.1796C86.2656 29.1796 86.2656 29.1796 86.2656 29.2377Z" fill="white"/>
<path d="M94.4604 80.5114C95.6309 80.0463 96.6844 79.4069 97.6208 78.593C97.7964 78.4186 98.0306 78.6511 97.9721 78.8255C98.0306 78.8837 98.0305 78.9999 98.0305 79.1162C98.0305 79.2906 97.9721 79.465 97.9721 79.6394C97.9135 79.9882 97.8549 80.2789 97.7964 80.6277C97.6793 81.2671 97.5623 81.9647 97.4452 82.6042C97.4452 82.7786 97.2698 82.8367 97.0942 82.7786C96.1577 82.1972 95.2797 81.6159 94.4018 80.9183C94.2848 80.802 94.2848 80.5695 94.4604 80.5114ZM97.6208 79.4069C97.6208 79.3487 97.6208 79.2325 97.6793 79.0581C96.86 79.7557 95.9821 80.337 94.9871 80.7439C95.6894 81.2671 96.3919 81.7322 97.0942 82.1972C97.2112 81.6159 97.3282 80.9764 97.4452 80.3951C97.5038 80.1045 97.5623 79.7557 97.6208 79.4069Z" fill="#36D7BE"/>
<path d="M104.527 43.9464C105.054 43.5395 105.814 43.2489 106.517 43.5395C107.102 43.8302 107.336 44.4696 107.512 45.051C107.687 45.8648 107.687 46.6787 107.98 47.4344C108.273 48.3064 108.741 49.1784 109.443 49.8178C111.082 51.2712 113.481 51.213 115.53 51.5037C117.11 51.7362 119.158 52.3175 119.861 53.8871C120.212 55.0498 119.919 56.2124 118.749 56.6194C117.988 56.91 117.461 56.5031 116.817 56.0962C115.822 55.5148 114.769 56.0962 113.774 56.2706C111.901 56.6775 110.087 55.8636 108.507 54.9916C106.926 54.1778 105.463 53.1895 104.351 51.7944C102.537 49.6434 102.01 45.8648 104.527 43.9464ZM106.575 53.3639C107.863 54.2941 109.385 55.166 110.965 55.6311C112.018 55.9799 112.955 56.038 114.008 55.7474C114.769 55.5148 115.647 55.2242 116.408 55.4567C117.286 55.6892 117.929 56.7356 118.866 56.038C119.627 55.5148 119.51 54.5847 119.158 53.829C118.749 53.4802 118.398 53.1314 117.871 52.8407C117.169 52.4919 116.408 52.2594 115.588 52.1431C114.125 51.8525 112.603 51.8525 111.14 51.4456C109.794 51.0386 108.682 50.2248 107.921 48.9458C107.57 48.3645 107.336 47.7251 107.16 47.0856C106.985 46.388 106.985 45.6904 106.809 45.051C106.575 44.1208 105.873 43.6558 104.995 44.179C104.351 44.5859 103.824 45.2254 103.59 45.923C103.064 47.1437 103.122 48.5971 103.59 49.8178C104.234 51.2712 105.346 52.4338 106.575 53.3639Z" fill="#36D7BE"/>
<path d="M110.085 13.8914C110.495 13.4264 110.905 13.0194 111.49 12.7869C112.075 12.5544 112.66 12.4381 113.304 12.4381C114.007 12.4381 114.884 12.38 115.645 12.6125C116.816 12.9032 117.811 13.7751 118.279 14.9378C119.098 16.8562 118.63 19.414 116.582 20.286C115.47 20.7511 114.241 20.6929 113.07 20.5185C112.017 20.3441 110.963 19.9953 110.144 19.2396C109.383 18.6002 108.856 17.67 108.856 16.6818C108.798 15.5773 109.383 14.6471 110.085 13.8914ZM110.085 18.3095C111.256 19.7628 113.597 20.1697 115.353 19.9372C116.231 19.8209 117.167 19.3559 117.577 18.542C118.045 17.7282 118.045 16.6818 117.869 15.8098C117.635 14.6471 116.816 13.6589 115.821 13.1938C115.177 13.0194 114.533 12.9613 113.831 12.9032C112.836 12.9032 111.841 12.9613 111.022 13.6008C110.378 14.1239 109.734 14.9378 109.441 15.7517C109.207 16.6818 109.5 17.6119 110.085 18.3095Z" fill="#36D7BE"/>
<path d="M80.7043 26.7392C81.3481 26.1579 82.2845 26.1579 83.0454 26.0998C84.9768 25.8672 87.0252 25.8672 88.8395 26.8555C90.5953 27.8437 91.8244 29.5877 92.9364 31.3898C94.224 33.1338 95.336 35.0522 95.8627 37.3194C96.2139 38.8308 96.0968 40.8073 94.8093 41.563C93.4046 42.3769 91.7659 41.2142 90.6539 40.1097C89.2492 38.7145 88.0787 37.2031 86.4399 36.2148C84.8597 35.2847 83.1624 34.6452 81.7578 33.2501C80.7043 32.1455 79.7679 30.576 79.8849 28.7739C79.9435 28.0763 80.1776 27.2624 80.7043 26.7392ZM81.9334 32.6687C83.1039 33.9477 84.6256 34.5871 86.0888 35.401C87.4349 36.1567 88.5469 37.0287 89.6004 38.2495C90.7124 39.4121 91.8829 40.9236 93.4046 41.2724C94.1655 41.3886 94.9263 41.2142 95.336 40.3422C95.6872 39.5865 95.6286 38.6564 95.5116 37.9007C94.9263 34.4709 92.7608 31.5642 90.7124 29.1226C90.3612 28.7157 89.9515 28.3669 89.5419 28.0181C88.1372 26.9717 86.557 26.6229 84.9182 26.6229C84.1574 26.6229 83.3965 26.6811 82.6357 26.7973C81.6993 26.9136 80.8214 26.9717 80.4702 28.1925C80.0605 29.8784 80.9384 31.5642 81.9334 32.6687Z" fill="#FFCE76"/>
<path d="M19.605 78.8834C19.7806 78.4184 19.8977 78.0115 20.0732 77.5464C20.1903 77.1976 20.2488 76.7325 20.6 76.5581C20.7756 76.5 20.9511 76.5 21.1267 76.5C21.3608 76.5581 21.5949 76.6163 21.7705 76.6744C22.0046 76.7325 22.2387 76.7907 22.4728 76.8488C22.5899 76.8488 22.7069 76.9069 22.824 76.9069C22.9411 76.9651 22.9996 76.9651 23.1166 77.0813C23.0581 77.7208 22.9996 78.1859 22.9411 78.709C22.8825 79.0578 22.8825 79.5229 22.5314 79.6392C22.3558 79.6973 22.1802 79.6973 22.0046 79.6392C21.7705 79.581 21.4779 79.5229 21.2438 79.4648C20.717 79.3485 20.2488 79.2322 19.7221 79.116C19.605 79.116 19.5465 78.9997 19.605 78.8834ZM21.712 79.2904C21.8876 79.3485 22.1217 79.4066 22.3558 79.4066C22.5899 79.4066 22.6484 79.2322 22.7069 79.0578C22.7655 78.8834 22.7655 78.6509 22.824 78.4765C22.8825 78.0696 22.9411 77.7208 22.9996 77.3139C22.7655 77.3139 22.707 77.2557 22.5899 77.2557C22.4143 77.1976 22.1802 77.1395 22.0046 77.0813L21.4194 76.9651C21.2438 76.9069 21.0097 76.8488 20.8341 76.9069C20.717 76.9651 20.6585 77.1395 20.6 77.2557C20.5415 77.4301 20.4829 77.6627 20.4244 77.8371C20.3074 78.1859 20.1903 78.5346 20.0732 78.8834C20.4244 78.9997 20.8341 79.0578 21.1853 79.1741C21.2438 79.1741 21.4779 79.2322 21.712 79.2904Z" fill="#FFCE76"/>
<path d="M102.944 70.3369C103.296 69.93 103.881 69.8137 104.349 70.0462C104.934 70.3369 105.285 70.9764 105.11 71.5577C105.051 71.7321 104.876 71.6158 104.876 71.4996C104.993 71.0345 104.7 70.5694 104.291 70.3369C103.939 70.1044 103.471 70.1625 103.179 70.4532C102.886 70.6857 102.769 71.0926 102.827 71.4996C102.886 71.9065 103.237 72.139 103.588 72.1972C103.822 72.2553 104.056 72.1972 104.291 72.139C104.115 72.139 104.115 72.0228 104.173 71.9646C104.349 71.8484 104.583 71.7902 104.817 71.7321C104.934 71.674 105.051 71.8484 104.993 71.9646C104.408 72.8366 102.886 72.7204 102.535 71.674C102.476 71.2089 102.652 70.6857 102.944 70.3369Z" fill="#FF88C4"/>
<defs>
<linearGradient id="paint0_linear_53_3186" x1="57.3437" y1="62.9998" x2="-55.2515" y2="197.655" gradientUnits="userSpaceOnUse">
<stop offset="0.0239582" stop-color="#5EBBFF" stop-opacity="0.5"/>
<stop offset="0.685417" stop-color="#A174FF"/>
</linearGradient>
</defs>
</svg>
