<svg width="16" height="17" viewBox="0 0 16 17" fill="none" xmlns="http://www.w3.org/2000/svg">
<path d="M12.8652 3.66006C12.8652 4.33386 12.357 4.88009 11.73 4.88009C11.1031 4.88009 10.5949 4.33386 10.5949 3.66006C10.5949 2.98627 11.1031 2.44004 11.73 2.44004C12.357 2.44004 12.8652 2.98627 12.8652 3.66006Z" fill="#292E39"/>
<path fill-rule="evenodd" clip-rule="evenodd" d="M7.56775 12.2002C9.65753 12.2002 11.3516 10.3795 11.3516 8.13348C11.3516 5.88748 9.65753 4.06674 7.56775 4.06674C5.47798 4.06674 3.78388 5.88748 3.78388 8.13348C3.78388 10.3795 5.47798 12.2002 7.56775 12.2002ZM7.56775 10.5735C8.82162 10.5735 9.83808 9.48108 9.83808 8.13348C9.83808 6.78588 8.82162 5.69343 7.56775 5.69343C6.31389 5.69343 5.29743 6.78588 5.29743 8.13348C5.29743 9.48108 6.31389 10.5735 7.56775 10.5735Z" fill="#292E39"/>
<path fill-rule="evenodd" clip-rule="evenodd" d="M0 7.80814C0 5.07503 0 3.70848 0.494902 2.66457C0.930229 1.74633 1.62486 0.999768 2.47924 0.531898C3.45054 0 4.72204 0 7.26505 0H7.87046C10.4135 0 11.685 0 12.6563 0.531898C13.5106 0.999768 14.2053 1.74633 14.6406 2.66457C15.1355 3.70848 15.1355 5.07503 15.1355 7.80814V8.45882C15.1355 11.1919 15.1355 12.5585 14.6406 13.6024C14.2053 14.5206 13.5106 15.2672 12.6563 15.7351C11.685 16.267 10.4135 16.267 7.87046 16.267H7.26505C4.72204 16.267 3.45054 16.267 2.47924 15.7351C1.62486 15.2672 0.930229 14.5206 0.494902 13.6024C0 12.5585 0 11.1919 0 8.45882V7.80814ZM7.26505 1.6267H7.87046C9.16694 1.6267 10.0483 1.62796 10.7295 1.68778C11.3931 1.74605 11.7324 1.85166 11.9691 1.98129C12.5387 2.29321 13.0018 2.79091 13.292 3.40308C13.4126 3.65749 13.5109 4.0222 13.5651 4.73537C13.6208 5.46753 13.622 6.41474 13.622 7.80814V8.45882C13.622 9.85221 13.6208 10.7994 13.5651 11.5316C13.5109 12.2448 13.4126 12.6095 13.292 12.8639C13.0018 13.476 12.5387 13.9737 11.9691 14.2857C11.7324 14.4153 11.3931 14.5209 10.7295 14.5792C10.0483 14.639 9.16694 14.6403 7.87046 14.6403H7.26505C5.96857 14.6403 5.08724 14.639 4.406 14.5792C3.74244 14.5209 3.4031 14.4153 3.16638 14.2857C2.59679 13.9737 2.1337 13.476 1.84349 12.8639C1.72287 12.6095 1.6246 12.2448 1.57039 11.5316C1.51473 10.7994 1.51355 9.85221 1.51355 8.45882V7.80814C1.51355 6.41474 1.51473 5.46753 1.57039 4.73537C1.6246 4.0222 1.72287 3.65749 1.84349 3.40308C2.1337 2.79091 2.59679 2.29321 3.16638 1.98129C3.4031 1.85166 3.74244 1.74605 4.406 1.68778C5.08724 1.62796 5.96857 1.6267 7.26505 1.6267Z" fill="#292E39"/>
</svg>
