<svg width="18" height="19" viewBox="0 0 18 19" fill="none" xmlns="http://www.w3.org/2000/svg">
<path d="M5.27205 7.35156C5.06111 7.14062 4.77986 7 4.46345 7C4.39314 7 4.32283 7.03516 4.25252 7.03516C3.8658 7.14062 3.54939 7.38672 3.40877 7.73828L0.0689241 16.7383C-0.071698 17.1602 0.0337741 17.6172 0.350174 17.9336C0.525954 18.1445 0.807204 18.25 1.12361 18.25C1.22908 18.25 1.3697 18.25 1.51033 18.1797L10.4752 14.8047C10.8267 14.6992 11.108 14.3828 11.1783 13.9961C11.2486 13.6445 11.1431 13.2578 10.8619 12.9766L5.27205 7.35156ZM1.12361 17.125L2.10799 14.418L3.79549 16.1055L1.12361 17.125ZM4.95564 15.6836L2.52986 13.293L3.33845 11.1836L7.06502 14.9102L4.95564 15.6836ZM8.22517 14.4531L3.76033 10.0234L4.46345 8.16016L10.0884 13.75L8.22517 14.4531ZM17.4361 9.25H17.0494C15.2564 9.25 13.6041 10.1641 12.4439 11.7461C12.2681 11.9922 12.3384 12.3438 12.5845 12.5547C12.69 12.5898 12.7955 12.625 12.9361 12.625C13.0767 12.625 13.2525 12.5547 13.3931 12.4141C14.3072 11.1133 15.608 10.375 17.0494 10.375H17.4361C17.7174 10.375 17.9986 10.1289 17.9986 9.8125C17.9986 9.53125 17.7174 9.25 17.4361 9.25ZM6.18611 5.875C6.29158 5.875 6.39705 5.83984 6.50252 5.76953C8.08455 4.64453 8.99861 2.99219 8.99861 1.19922V0.8125C8.99861 0.53125 8.71736 0.25 8.43611 0.25C8.15486 0.25 7.87361 0.53125 7.87361 0.8125V1.19922C7.87361 2.64062 7.17049 3.94141 5.8697 4.85547C5.58845 5.06641 5.51814 5.41797 5.69392 5.66406C5.83455 5.80469 6.01033 5.875 6.18611 5.875ZM2.24861 2.21875C2.70564 2.21875 3.09236 1.86719 3.09236 1.375C3.09236 0.917969 2.70564 0.53125 2.24861 0.53125C1.75642 0.53125 1.40486 0.917969 1.40486 1.375C1.40486 1.86719 1.75642 2.21875 2.24861 2.21875ZM16.8736 15.1562C16.3814 15.1562 16.0298 15.543 16.0298 16C16.0298 16.4922 16.3814 16.8438 16.8736 16.8438C17.3306 16.8438 17.7174 16.4922 17.7174 16C17.7174 15.543 17.3306 15.1562 16.8736 15.1562ZM16.8736 5.03125C16.3814 5.03125 16.0298 5.41797 16.0298 5.875C16.0298 6.36719 16.3814 6.71875 16.8736 6.71875C17.3306 6.71875 17.7174 6.36719 17.7174 5.875C17.7174 5.41797 17.3306 5.03125 16.8736 5.03125ZM13.4283 6.4375C14.1314 5.59375 14.0963 4.82031 14.0259 4.1875C13.9908 3.58984 13.9908 3.20312 14.3775 2.71094C14.7994 2.25391 15.1861 2.18359 15.7486 2.14844C16.3814 2.07812 17.1548 2.00781 17.858 1.19922C18.0338 0.953125 18.0338 0.601562 17.7877 0.390625C17.5416 0.214844 17.19 0.214844 16.9791 0.460938C16.5924 0.953125 16.2056 0.988281 15.6431 1.02344C15.0103 1.09375 14.2369 1.16406 13.5338 1.97266C12.8306 2.81641 12.8658 3.58984 12.9361 4.25781C12.9713 4.82031 12.9713 5.20703 12.5845 5.69922C12.1627 6.19141 11.7759 6.22656 11.2134 6.26172C10.5806 6.33203 9.80721 6.40234 9.10411 7.21094C8.9283 7.45703 8.9283 7.80859 9.17441 8.01953C9.27981 8.08984 9.42051 8.125 9.56111 8.125C9.70171 8.125 9.87751 8.08984 9.98301 7.94922C10.3697 7.45703 10.7564 7.42188 11.3189 7.38672C11.9517 7.31641 12.7252 7.24609 13.4283 6.4375Z" fill="url(#paint0_linear_54_5139)"/>
<defs>
<linearGradient id="paint0_linear_54_5139" x1="-0.00138581" y1="-5" x2="-0.00138581" y2="23" gradientUnits="userSpaceOnUse">
<stop stop-color="#5EBBFF"/>
<stop offset="1" stop-color="#A174FF"/>
</linearGradient>
</defs>
</svg>
