<svg width="40" height="40" viewBox="0 0 40 40" fill="none" xmlns="http://www.w3.org/2000/svg">
<path d="M9.11703 14.9999C12.3387 14.9999 14.9504 12.3883 14.9504 9.16659C14.9504 5.94492 12.3387 3.33325 9.11703 3.33325C5.89537 3.33325 3.28369 5.94492 3.28369 9.16659C3.28369 12.3883 5.89537 14.9999 9.11703 14.9999Z" stroke="#374151" stroke-width="1.5"/>
<path d="M28.2835 25H33.2835C35.1169 25 36.6169 26.5 36.6169 28.3333V33.3333C36.6169 35.1667 35.1169 36.6667 33.2835 36.6667H28.2835C26.4502 36.6667 24.9502 35.1667 24.9502 33.3333V28.3333C24.9502 26.5 26.4502 25 28.2835 25Z" stroke="#374151" stroke-width="1.5"/>
<path d="M20.0003 8.33325H24.467C27.5503 8.33325 28.9837 12.1499 26.667 14.1833L13.3503 25.8333C11.0336 27.8499 12.467 31.6666 15.5336 31.6666H20.0003" stroke="#4B5563" stroke-width="1.5" stroke-linecap="round" stroke-linejoin="round"/>
<path d="M9.14355 9.16675H9.1628" stroke="#4B5563" stroke-width="2" stroke-linecap="round" stroke-linejoin="round"/>
<path d="M30.8105 30.8333H30.8299" stroke="#4B5563" stroke-width="2" stroke-linecap="round" stroke-linejoin="round"/>
</svg>
