<svg width="19" height="17" viewBox="0 0 19 17" fill="none" xmlns="http://www.w3.org/2000/svg">
<path d="M5.81423 16.6005C3.7158 16.6005 1.75971 15.9309 0.113281 14.7756C1.51115 14.8749 3.97807 14.6372 5.51249 13.0316C3.20422 12.9154 2.16323 10.9733 2.02745 10.1434C2.22358 10.2264 3.15896 10.326 3.687 10.0936C1.03172 9.36321 0.624382 6.80693 0.714903 6.02677C1.21277 6.40855 2.05762 6.54134 2.38953 6.50814C-0.0846958 4.56604 0.805423 1.64458 1.24294 1.01381C3.01854 3.71242 5.6796 5.22806 8.97169 5.31237C8.90962 5.01372 8.87684 4.7028 8.87684 4.38345C8.87684 2.09157 10.5655 0.233643 12.6485 0.233643C13.7369 0.233643 14.7176 0.740839 15.406 1.55212C16.1333 1.36516 17.2279 0.927502 17.7629 0.549028C17.4932 1.61138 16.6535 2.49759 16.1456 2.82606C16.1498 2.83723 16.1415 2.81484 16.1456 2.82606C16.5918 2.75202 17.799 2.49751 18.2759 2.14255C18.0401 2.73937 17.1498 3.73168 16.4192 4.28722C16.5552 10.8636 11.9686 16.6005 5.81423 16.6005Z" fill="#292E39"/>
</svg>
