<svg width="40" height="40" viewBox="0 0 40 40" fill="none" xmlns="http://www.w3.org/2000/svg">
<path d="M36.6668 27.8998V7.78324C36.6668 5.78324 35.0335 4.29991 33.0502 4.46657H32.9502C29.4502 4.76657 24.1335 6.54991 21.1668 8.41657L20.8835 8.59991C20.4002 8.89991 19.6002 8.89991 19.1168 8.59991L18.7002 8.34991C15.7335 6.49991 10.4335 4.73324 6.9335 4.44991C4.95016 4.28324 3.3335 5.78324 3.3335 7.76657V27.8998C3.3335 29.4998 4.6335 30.9998 6.2335 31.1998L6.71683 31.2665C10.3335 31.7498 15.9168 33.5832 19.1168 35.3332L19.1835 35.3665C19.6335 35.6165 20.3502 35.6165 20.7835 35.3665C23.9835 33.5998 29.5835 31.7498 33.2168 31.2665L33.7668 31.1998C35.3668 30.9998 36.6668 29.4998 36.6668 27.8998Z" stroke="#4B5563" stroke-width="1.5" stroke-linecap="round" stroke-linejoin="round"/>
<path d="M20 9.1499V34.1499" stroke="#4B5563" stroke-width="1.5" stroke-linecap="round" stroke-linejoin="round"/>
<path d="M12.9165 14.1499H9.1665" stroke="#4B5563" stroke-width="1.5" stroke-linecap="round" stroke-linejoin="round"/>
<path d="M14.1665 19.1499H9.1665" stroke="#4B5563" stroke-width="1.5" stroke-linecap="round" stroke-linejoin="round"/>
</svg>
