<svg width="46" height="38" viewBox="0 0 46 38" fill="none" xmlns="http://www.w3.org/2000/svg">
<path d="M21.552 23.0048C22.1261 22.7101 22.7721 22.8575 23.131 23.4467C23.4181 24.0362 23.2745 24.6992 22.7004 25.0676L19.2551 27.1305C18.6808 27.4251 17.9631 27.204 17.676 26.6883C17.3171 26.0991 17.5324 25.3623 18.1066 25.0676L21.552 23.0048ZM12.508 12.4697C12.6515 11.954 13.154 11.5857 13.6564 11.733L21.4801 14.0168C23.777 14.6799 25.069 17.2584 24.2794 19.6159C23.7053 21.3103 22.0544 22.268 20.4035 22.1944C20.0446 22.1944 19.6857 22.1944 19.3986 22.0471L18.5373 21.826L18.3937 22.6364C18.3219 22.9312 18.1784 23.2258 18.1066 23.5205C17.3171 25.1412 15.5944 26.1726 13.8 25.8042C11.4313 25.3623 9.99578 22.8575 10.57 20.5737L12.508 12.4697ZM12.7951 21.0892C12.508 22.1944 13.2258 23.2994 14.2307 23.5205C15.0202 23.5942 15.8815 23.0785 16.1686 22.1207L16.8146 18.8792L19.9728 19.8369C20.9777 20.0579 21.9109 19.5422 22.1261 18.8055C22.485 17.7741 21.9109 16.5953 20.906 16.3007L14.3742 14.4589L12.7951 21.0892ZM12.508 35.6763C12.508 35.6763 12.508 35.6763 12.508 35.6026L0.521173 14.3852C0.521173 14.3115 0.521173 14.3115 0.521173 14.3115C-0.555487 12.3224 0.0905082 9.89122 1.95672 8.71247L15.8098 0.534927C17.7477 -0.570148 20.1882 0.0928963 21.2647 2.00837L33.2515 23.3732C34.4 25.2887 33.754 27.7935 31.8161 28.8985C31.8161 28.9723 31.8161 28.9723 31.8161 28.9723L17.9631 37.1497C16.0251 38.2547 13.6564 37.5917 12.508 35.6763ZM16.8146 35.0869L30.6676 26.9094C31.4571 26.3937 31.7444 25.3623 31.2419 24.4781L19.3268 3.26078C18.8244 2.37673 17.7477 2.08203 16.9582 2.59772L3.17694 10.7753C2.31561 11.2173 2.02851 12.3224 2.53094 13.1328L14.5177 34.4976C14.9484 35.3079 16.0251 35.6026 16.8146 35.0869ZM25.8585 37.6654C24.8538 37.6654 23.9205 37.3708 23.2745 36.7078L25.6433 35.3079C25.7149 35.3079 25.7868 35.3079 25.8585 35.3079H41.9366C42.8698 35.3079 43.6594 34.5712 43.6594 33.5397V8.78615C43.6594 7.82842 42.8698 7.01803 41.9366 7.01803H26.7917L25.4279 4.73422C25.5714 4.73422 25.7149 4.66054 25.8585 4.66054H41.9366C44.0899 4.66054 45.9562 6.576 45.9562 8.78615V33.5397C45.9562 35.8237 44.0899 37.6654 41.9366 37.6654H25.8585ZM32.175 10.1859C33.3234 9.15451 34.9743 9.22819 36.1227 10.0386C37.3428 9.22819 38.9221 9.15451 40.1422 10.1859C41.6495 11.512 41.7214 13.8695 40.3576 15.2693L37.3428 18.5108C36.6969 19.1002 35.6203 19.1739 34.9743 18.4371L31.9596 15.2693C30.596 13.8695 30.6676 11.512 32.175 10.1859ZM33.6823 11.954C33.1799 12.3961 33.1799 13.1328 33.6105 13.6485L36.1946 16.3743L38.7067 13.6485C39.1375 13.1328 39.1375 12.3961 38.635 11.954C38.2761 11.6593 37.7018 11.6593 37.2712 12.1014L36.1946 13.3538L35.046 12.1014C34.6154 11.6593 33.9694 11.6593 33.6823 11.954Z" fill="url(#paint0_linear_127_1707)"/>
<defs>
<linearGradient id="paint0_linear_127_1707" x1="-1.51252" y1="-6.86498" x2="-1.51252" y2="43.4282" gradientUnits="userSpaceOnUse">
<stop stop-color="#5EBBFF"/>
<stop offset="1" stop-color="#A174FF"/>
</linearGradient>
</defs>
</svg>