<svg width="16" height="17" viewBox="0 0 16 17" fill="none" xmlns="http://www.w3.org/2000/svg">
<path d="M3.65125 1.96615C3.65125 3.05203 2.83389 3.9323 1.82562 3.9323C0.817359 3.9323 0 3.05203 0 1.96615C0 0.880276 0.817359 0 1.82562 0C2.83389 0 3.65125 0.880276 3.65125 1.96615Z" fill="#292E39"/>
<path d="M0.249658 5.37751H3.37038V16.267H0.249658V5.37751Z" fill="#292E39"/>
<path d="M8.39475 5.37751H5.27402V16.267H8.39475C8.39475 16.267 8.39475 12.8388 8.39475 10.6954C8.39475 9.40883 8.77623 8.11667 10.2984 8.11667C12.0186 8.11667 12.0083 9.8003 12.0002 11.1046C11.9898 12.8096 12.0148 14.5495 12.0148 16.267H15.1355V10.5197C15.1091 6.84999 14.2787 5.15904 11.5467 5.15904C9.92425 5.15904 8.91856 6.00722 8.39475 6.7746V5.37751Z" fill="#292E39"/>
</svg>
