<svg width="32" height="32" viewBox="0 0 32 32" fill="none" xmlns="http://www.w3.org/2000/svg">
<g clip-path="url(#clip0_39_1632)">
<path d="M17.2768 0.988525C24.7823 0.924199 30.9222 6.95969 30.9865 14.4653C30.9932 15.2445 30.3716 15.8768 29.5924 15.8835C28.8131 15.8902 28.1808 15.2686 28.1741 14.4894C28.1231 8.53647 23.2538 3.7499 17.3009 3.80092C16.5216 3.8076 15.8893 3.18604 15.8826 2.40678C15.8759 1.62751 16.4975 0.995204 17.2768 0.988525ZM17.8419 12.2341C18.3392 12.2298 18.8178 12.4233 19.1724 12.7719C19.527 13.1205 19.7286 13.5957 19.7329 14.093C19.7372 14.5902 19.5437 15.0688 19.1951 15.4234C18.8465 15.7781 18.3713 15.9797 17.874 15.984C17.3768 15.9882 16.8982 15.7948 16.5436 15.4462C16.1889 15.0976 15.9873 14.6224 15.983 14.1251C15.9788 13.6278 16.1722 13.1492 16.5208 12.7946C16.8694 12.44 17.3446 12.2384 17.8419 12.2341ZM15.9308 8.03157C15.9241 7.2523 16.5457 6.62 17.325 6.61332C21.7252 6.57561 25.324 10.1133 25.3617 14.5135C25.3684 15.2928 24.7468 15.9251 23.9676 15.9317C23.1883 15.9384 22.556 15.3169 22.5493 14.5376C22.5249 11.69 20.1966 9.40131 17.3491 9.42572C16.5698 9.43239 15.9375 8.81084 15.9308 8.03157ZM7.75632 1.15215C8.89034 0.831876 10.0847 1.40174 10.5452 2.48768L12.9371 8.09238C13.3437 9.04401 13.0778 10.1538 12.2807 10.811L9.41239 13.2029C11.3988 17.311 14.7672 20.6221 18.9088 22.5378L21.2452 19.629C21.8946 18.8207 22.9938 18.5359 23.9522 18.9261L29.5971 21.2216C30.6908 21.6634 31.281 22.8478 30.9802 23.9872L29.6182 29.1553C29.3516 30.1771 28.4319 30.894 27.3772 30.9031C12.8817 31.0273 1.02748 19.3746 0.903243 4.87899C0.894204 3.82434 1.59523 2.89252 2.61231 2.60254L7.75632 1.15215Z" fill="#0071DC"/>
</g>
<defs>
<clipPath id="clip0_39_1632">
<rect width="30" height="30" fill="white" transform="translate(0.871094 1.12915) rotate(-0.491039)"/>
</clipPath>
</defs>
</svg>
