<svg width="31" height="30" viewBox="0 0 31 30" fill="none" xmlns="http://www.w3.org/2000/svg">
<path d="M24.9359 12.1857C24.9359 14.8748 24.0742 17.3588 22.6226 19.3741L29.9443 26.7969C30.6673 27.5292 30.6673 28.7184 29.9443 29.4508C29.2214 30.1831 28.0474 30.1831 27.3245 29.4508L20.0027 22.028C18.0132 23.5044 15.561 24.3714 12.9064 24.3714C6.2613 24.3714 0.876953 18.9172 0.876953 12.1857C0.876953 5.45428 6.2613 0 12.9064 0C19.5516 0 24.9359 5.45428 24.9359 12.1857ZM12.9064 20.622C14.0001 20.622 15.0831 20.4038 16.0935 19.9798C17.1039 19.5558 18.022 18.9344 18.7953 18.1511C19.5686 17.3677 20.1821 16.4377 20.6006 15.4141C21.0191 14.3906 21.2345 13.2936 21.2345 12.1857C21.2345 11.0778 21.0191 9.98083 20.6006 8.9573C20.1821 7.93376 19.5686 7.00375 18.7953 6.22038C18.022 5.437 17.1039 4.81559 16.0935 4.39162C15.0831 3.96766 14.0001 3.74945 12.9064 3.74945C11.8128 3.74945 10.7298 3.96766 9.71941 4.39162C8.709 4.81559 7.79091 5.437 7.01758 6.22038C6.24424 7.00375 5.6308 7.93376 5.21227 8.9573C4.79375 9.98083 4.57833 11.0778 4.57833 12.1857C4.57833 13.2936 4.79375 14.3906 5.21227 15.4141C5.6308 16.4377 6.24424 17.3677 7.01758 18.1511C7.79091 18.9344 8.709 19.5558 9.71941 19.9798C10.7298 20.4038 11.8128 20.622 12.9064 20.622Z" fill="#D9D9D9"/>
</svg>
